<?xml version="1.0" encoding="utf-8"?>
<!-- Generator: Adobe Illustrator 25.0.1, SVG Export Plug-In . SVG Version: 6.00 Build 0)  -->
<svg version="1.1" id="OBJECTS" xmlns="http://www.w3.org/2000/svg" xmlns:xlink="http://www.w3.org/1999/xlink" x="0px" y="0px"
	 viewBox="0 0 236.31 324.65" style="enable-background:new 0 0 236.31 324.65;" xml:space="preserve">
<style type="text/css">
	.st0{fill:#2091EB;}
</style>
<path class="st0" d="M118.15,0C52.9,0,0,52.9,0,118.15c0,63.02,70.83,149.35,113.7,204.32c2.26,2.9,6.65,2.9,8.91,0
	c42.87-54.97,113.7-141.3,113.7-204.32C236.31,52.9,183.41,0,118.15,0z M118.15,202.51c-46.59,0-84.36-37.77-84.36-84.36
	c0-46.59,37.77-84.36,84.36-84.36c46.59,0,84.36,37.77,84.36,84.36C202.51,164.75,164.75,202.51,118.15,202.51z"/>
</svg>
